<mxfile host="Electron" agent="Mozilla/5.0 (Windows NT 10.0; Win64; x64) AppleWebKit/537.36 (KHTML, like Gecko) draw.io/26.2.2 Chrome/134.0.6998.178 Electron/35.1.2 Safari/537.36" version="26.2.2">
  <diagram id="UNeN9pHR6oejPKSmaOhF" name="PÃ¡gina-2">
    <mxGraphModel dx="874" dy="1356" grid="1" gridSize="10" guides="1" tooltips="1" connect="1" arrows="1" fold="1" page="1" pageScale="1" pageWidth="1169" pageHeight="827" math="0" shadow="0">
      <root>
        <mxCell id="0" />
        <mxCell id="1" parent="0" />
        <mxCell id="o-mPqwJUsViI8wvMGOKd-1" value="Actor" style="shape=umlActor;verticalLabelPosition=bottom;verticalAlign=top;html=1;outlineConnect=0;" parent="1" vertex="1">
          <mxGeometry x="40" y="170" width="70" height="140" as="geometry" />
        </mxCell>
        <mxCell id="o-mPqwJUsViI8wvMGOKd-2" value="" style="whiteSpace=wrap;html=1;aspect=fixed;container=1;" parent="1" vertex="1">
          <mxGeometry x="180" y="-50" width="520" height="520" as="geometry" />
        </mxCell>
        <mxCell id="o-mPqwJUsViI8wvMGOKd-4" value="Registro de cuenta" style="ellipse;whiteSpace=wrap;html=1;" parent="1" vertex="1">
          <mxGeometry x="210" y="70" width="120" height="80" as="geometry" />
        </mxCell>
        <mxCell id="o-mPqwJUsViI8wvMGOKd-5" value="Registro de gasto" style="ellipse;whiteSpace=wrap;html=1;" parent="1" vertex="1">
          <mxGeometry x="490" y="100" width="75" height="50" as="geometry" />
        </mxCell>
        <mxCell id="o-mPqwJUsViI8wvMGOKd-6" value="Calculo de tasa BCV" style="ellipse;whiteSpace=wrap;html=1;" parent="1" vertex="1">
          <mxGeometry x="540" y="200" width="90" height="60" as="geometry" />
        </mxCell>
        <mxCell id="o-mPqwJUsViI8wvMGOKd-23" value="" style="edgeStyle=orthogonalEdgeStyle;rounded=0;orthogonalLoop=1;jettySize=auto;html=1;entryX=0;entryY=0.5;entryDx=0;entryDy=0;" parent="1" source="o-mPqwJUsViI8wvMGOKd-7" target="o-mPqwJUsViI8wvMGOKd-8" edge="1">
          <mxGeometry relative="1" as="geometry">
            <mxPoint x="510" y="210" as="targetPoint" />
          </mxGeometry>
        </mxCell>
        <mxCell id="o-mPqwJUsViI8wvMGOKd-7" value="Balance" style="ellipse;whiteSpace=wrap;html=1;" parent="1" vertex="1">
          <mxGeometry x="290" y="170" width="120" height="80" as="geometry" />
        </mxCell>
        <mxCell id="o-mPqwJUsViI8wvMGOKd-8" value="Historico" style="ellipse;whiteSpace=wrap;html=1;" parent="1" vertex="1">
          <mxGeometry x="545" y="280" width="80" height="50" as="geometry" />
        </mxCell>
        <mxCell id="o-mPqwJUsViI8wvMGOKd-9" value="Metricas" style="ellipse;whiteSpace=wrap;html=1;" parent="1" vertex="1">
          <mxGeometry x="550" y="350" width="70" height="40" as="geometry" />
        </mxCell>
        <mxCell id="o-mPqwJUsViI8wvMGOKd-10" value="Registro de ingreso" style="ellipse;whiteSpace=wrap;html=1;" parent="1" vertex="1">
          <mxGeometry x="485" y="30" width="85" height="50" as="geometry" />
        </mxCell>
        <mxCell id="o-mPqwJUsViI8wvMGOKd-17" value="" style="edgeStyle=orthogonalEdgeStyle;rounded=0;orthogonalLoop=1;jettySize=auto;html=1;" parent="1" source="o-mPqwJUsViI8wvMGOKd-12" target="o-mPqwJUsViI8wvMGOKd-10" edge="1">
          <mxGeometry relative="1" as="geometry" />
        </mxCell>
        <mxCell id="o-mPqwJUsViI8wvMGOKd-18" value="" style="edgeStyle=orthogonalEdgeStyle;rounded=0;orthogonalLoop=1;jettySize=auto;html=1;" parent="1" source="o-mPqwJUsViI8wvMGOKd-12" target="o-mPqwJUsViI8wvMGOKd-10" edge="1">
          <mxGeometry relative="1" as="geometry" />
        </mxCell>
        <mxCell id="o-mPqwJUsViI8wvMGOKd-12" value="Tipo de cuenta" style="ellipse;whiteSpace=wrap;html=1;" parent="1" vertex="1">
          <mxGeometry x="370" y="80" width="75" height="50" as="geometry" />
        </mxCell>
        <mxCell id="o-mPqwJUsViI8wvMGOKd-16" value="" style="endArrow=none;html=1;rounded=0;exitX=1;exitY=0.5;exitDx=0;exitDy=0;entryX=0;entryY=0.5;entryDx=0;entryDy=0;" parent="1" source="o-mPqwJUsViI8wvMGOKd-4" target="o-mPqwJUsViI8wvMGOKd-12" edge="1">
          <mxGeometry width="50" height="50" relative="1" as="geometry">
            <mxPoint x="420" y="220" as="sourcePoint" />
            <mxPoint x="470" y="170" as="targetPoint" />
          </mxGeometry>
        </mxCell>
        <mxCell id="o-mPqwJUsViI8wvMGOKd-19" value="" style="endArrow=classic;html=1;rounded=0;exitX=1;exitY=0.5;exitDx=0;exitDy=0;" parent="1" source="o-mPqwJUsViI8wvMGOKd-12" target="o-mPqwJUsViI8wvMGOKd-5" edge="1">
          <mxGeometry width="50" height="50" relative="1" as="geometry">
            <mxPoint x="420" y="220" as="sourcePoint" />
            <mxPoint x="470" y="170" as="targetPoint" />
          </mxGeometry>
        </mxCell>
        <mxCell id="o-mPqwJUsViI8wvMGOKd-24" value="" style="edgeStyle=orthogonalEdgeStyle;rounded=0;orthogonalLoop=1;jettySize=auto;html=1;entryX=0;entryY=0.5;entryDx=0;entryDy=0;exitX=1;exitY=0.5;exitDx=0;exitDy=0;" parent="1" source="o-mPqwJUsViI8wvMGOKd-7" target="o-mPqwJUsViI8wvMGOKd-6" edge="1">
          <mxGeometry relative="1" as="geometry">
            <mxPoint x="420" y="220" as="sourcePoint" />
            <mxPoint x="555" y="315" as="targetPoint" />
          </mxGeometry>
        </mxCell>
        <mxCell id="o-mPqwJUsViI8wvMGOKd-25" value="" style="edgeStyle=orthogonalEdgeStyle;rounded=0;orthogonalLoop=1;jettySize=auto;html=1;entryX=0;entryY=0.5;entryDx=0;entryDy=0;exitX=1;exitY=0.5;exitDx=0;exitDy=0;" parent="1" source="o-mPqwJUsViI8wvMGOKd-7" target="o-mPqwJUsViI8wvMGOKd-9" edge="1">
          <mxGeometry relative="1" as="geometry">
            <mxPoint x="420" y="220" as="sourcePoint" />
            <mxPoint x="555" y="315" as="targetPoint" />
          </mxGeometry>
        </mxCell>
        <mxCell id="o-mPqwJUsViI8wvMGOKd-26" value="" style="edgeStyle=orthogonalEdgeStyle;rounded=0;orthogonalLoop=1;jettySize=auto;html=1;entryX=0;entryY=0.5;entryDx=0;entryDy=0;" parent="1" source="o-mPqwJUsViI8wvMGOKd-1" target="o-mPqwJUsViI8wvMGOKd-7" edge="1">
          <mxGeometry relative="1" as="geometry">
            <mxPoint x="150" y="80" as="sourcePoint" />
          </mxGeometry>
        </mxCell>
        <mxCell id="o-mPqwJUsViI8wvMGOKd-30" value="" style="edgeStyle=orthogonalEdgeStyle;rounded=0;orthogonalLoop=1;jettySize=auto;html=1;entryX=0;entryY=0.5;entryDx=0;entryDy=0;" parent="1" source="o-mPqwJUsViI8wvMGOKd-1" target="o-mPqwJUsViI8wvMGOKd-4" edge="1">
          <mxGeometry relative="1" as="geometry">
            <mxPoint x="120" y="250" as="sourcePoint" />
            <mxPoint x="300" y="220" as="targetPoint" />
          </mxGeometry>
        </mxCell>
      </root>
    </mxGraphModel>
  </diagram>
</mxfile>
